<?xml version="1.0" ?><svg width="32px" height="32px" viewBox="0 0 32 32" xmlns="http://www.w3.org/2000/svg"><defs><style>.cls-1{fill:#231f20;}</style></defs><g id="love"><path class="cls-1" d="M16,28h0a2.94,2.94,0,0,1-2.27-1.08l-9.2-11a7.89,7.89,0,0,1-.11-9.15l.37-.46A5.89,5.89,0,0,1,9.52,4a6,6,0,0,1,4.66,2.71L16,9.33l1.82-2.62A6,6,0,0,1,22.48,4a5.9,5.9,0,0,1,4.73,2.29l.37.46a7.89,7.89,0,0,1-.1,9.14l-9.21,11A2.94,2.94,0,0,1,16,28ZM9.32,6a3.83,3.83,0,0,0-3,1.55L6,8a5.9,5.9,0,0,0,.1,6.62l9.19,11A1,1,0,0,0,16,26h0a1,1,0,0,0,.74-.36l9.2-11A5.9,5.9,0,0,0,26,8l-.38-.46A3.8,3.8,0,0,0,22.55,6a4,4,0,0,0-3.09,1.86l-2.64,3.79a1,1,0,0,1-1.64,0L12.54,7.86A4,4,0,0,0,9.45,6Z"/></g></svg>